{"title":"Sliders: Seasons 1 &amp; 2 [DVD9,ISO,NTSC]","uid":9787071,"size":50405468672,"categoryP":"video","categoryS":"tv_shows","magnet":"?xt=urn:btih:f54a22093be25b6f76197aa3cfbf305346e7daf9&amp;dn=Sliders%3A+Seasons+1+%26amp%3B+2+%5BDVD9%2CISO%2CNTSC%5D&amp;tr=udp%3A%2F%2Ftracker.openbittorrent.com%3A80&amp;tr=udp%3A%2F%2Fopen.demonii.com%3A1337&amp;tr=udp%3A%2F%2Ftracker.coppersurfer.tk%3A6969&amp;tr=udp%3A%2F%2Fexodus.desync.com%3A6969","seeders":0,"leechers":1,"uploader":"Celtoid","files":-1,"time":1395187674,"description":"These are intouched bit for bit copies. There are a total of 6 discs. They will require DVD9 (Dual-Layer) DVDR's to burn to.\n\nDisc 1: 7.72 GB\nDisc 2: 7.88 GB\nDisc 3: 7.84 GB\nDisc 4: 7.79 GB\nDisc 5: 7.81 GB\nDisc 6: 7.88 GB\n\n\nFormat                                   : MPEG-PS\nOverall bit rate mode                    : Variable\nOverall bit rate                         : 6 342 Kbps\n\nVideo\nID                                       : 224 (0xE0)\nFormat                                   : MPEG Video\nFormat version                           : Version 2\nFormat profile                           : Main@Main\nFormat settings, BVOP                    : Yes\nFormat settings, Matrix                  : Custom\nFormat settings, GOP                     : M=3, N=15\nDuration                                 : 22mn 34s\nBit rate mode                            : Variable\nBit rate                                 : 6 024 Kbps\nMaximum bit rate                         : 9 230 Kbps\nWidth                                    : 720 pixels\nHeight                                   : 480 pixels\nDisplay aspect ratio                     : 4:3\nFrame rate                               : 29.970 fps\nStandard                                 : NTSC\nColor space                              : YUV\nChroma subsampling                       : 4:2:0\nBit depth                                : 8 bits\nScan type                                : Interlaced\nScan order                               : Top Field First\nCompression mode                         : Lossy\nBits/(Pixel*Frame)                       : 0.582\nStream size                              : 973 MiB (95%)\n\nAudio\nID                                       : 189 (0xBD)-128 (0x80)\nFormat                                   : AC-3\nFormat/Info                              : Audio Coding 3\nFormat profile                           : Dolby Digital\nMode extension                           : CM (complete main)\nFormat settings, Endianness              : Big\nMuxing mode                              : DVD-Video\nDuration                                 : 22mn 34s\nBit rate mode                            : Constant\nBit rate                                 : 192 Kbps\nChannel(s)                               : 2 channels\nChannel positions                        : Front: L R\nSampling rate                            : 48.0 KHz\nBit depth                                : 16 bits\nCompression mode                         : Lossy\nStream size                              : 31.0 MiB (3%)","torrent":{"xt":"urn:btih:f54a22093be25b6f76197aa3cfbf305346e7daf9","amp;dn":"Sliders%3A+Seasons+1+%26amp%3B+2+%5BDVD9%2CISO%2CNTSC%5D","amp;tr":["udp%3A%2F%2Ftracker.openbittorrent.com%3A80","udp%3A%2F%2Fopen.demonii.com%3A1337","udp%3A%2F%2Ftracker.coppersurfer.tk%3A6969","udp%3A%2F%2Fexodus.desync.com%3A6969"],"infoHash":"f54a22093be25b6f76197aa3cfbf305346e7daf9","infoHashBuffer":{"type":"Buffer","data":[245,74,34,9,59,226,91,111,118,25,122,163,207,191,48,83,70,231,218,249]},"announce":[],"urlList":[]}}